<svg id="Calque_1" data-name="Calque 1" xmlns="http://www.w3.org/2000/svg" viewBox="0 0 1080 301.24"><defs><style>.cls-1{fill:#0b3540;}</style></defs><title>Repere</title><polygon class="cls-1" points="565.72 249.81 565.72 257.15 543.68 257.15 543.68 301.24 536.34 301.24 536.34 257.15 514.3 257.15 514.3 249.81 536.34 249.81 536.34 0 543.68 0 543.68 249.81 565.72 249.81"/><rect class="cls-1" x="411.43" y="249.81" width="51.43" height="7.34"/><rect class="cls-1" x="308.56" y="249.81" width="51.43" height="7.34"/><rect class="cls-1" x="205.68" y="249.81" width="51.43" height="7.34"/><rect class="cls-1" x="102.8" y="249.81" width="51.43" height="7.34"/><rect class="cls-1" y="249.81" width="51.43" height="7.34"/><rect class="cls-1" x="617.15" y="249.81" width="51.43" height="7.34"/><rect class="cls-1" x="719.99" y="249.81" width="51.43" height="7.34"/><rect class="cls-1" x="822.85" y="249.81" width="51.43" height="7.34"/><rect class="cls-1" x="925.7" y="249.81" width="51.43" height="7.34"/><rect class="cls-1" x="1028.57" y="249.81" width="51.43" height="7.34"/></svg>