M48
METRIC
T01C.999998
T02C1.039876
T03C1.199896
;LEADER: 12 
;HEADER: 
;CODE  : EIA 
;FILE  : Shield_2-1-2.drl for  ... layers TOP and BOTTOM
;DESIGN: Shield_2.brd
;T01 Holesize 1. = 0.999998 Tolerance = +0.000000/-0.000000 PLATED MM Quantity = 22
;T02 Holesize 2. = 1.039876 Tolerance = +0.000000/-0.000000 PLATED MM Quantity = 40
;T03 Holesize 3. = 1.199896 Tolerance = +0.000000/-0.000000 PLATED MM Quantity = 4
%
G90
T01
X05080000Y-02349500
X04826000Y-02349500
X04572000Y-02349500
X05080000Y-01016000
X04826000Y-01016000
X04572000Y-01016000
X05080000Y-05080000
X04826000Y-05080000
X04572000Y-05080000
X05080000Y-03619500
X04826000Y-03619500
X04572000Y-03619500
X02921000Y-04508500
X02921000Y-04254500
X02921000Y-04000500
X02921000Y-03746500
X02921000Y-03492500
X02921000Y-03238500
X05334000Y-05080000
X05334000Y-03619500
X05334000Y-02349500
X05334000Y-01016000
T02
X00825500Y-05524500
X00571500Y-05524500
X00571500Y-04508500
X00825500Y-04254500
X00571500Y-04254500
X00825500Y-04000500
X00571500Y-04000500
X00825500Y-03746500
X00571500Y-03746500
X00825500Y-03492500
X00571500Y-03492500
X00825500Y-03238500
X00571500Y-03238500
X00825500Y-02984500
X00571500Y-02984500
X00825500Y-05270500
X00571500Y-05270500
X00825500Y-05016500
X00571500Y-05016500
X00825500Y-04762500
X00571500Y-04762500
X00825500Y-04508500
X00825500Y-02730500
X00571500Y-02730500
X00825500Y-02476500
X00571500Y-02476500
X00825500Y-02222500
X00571500Y-02222500
X00825500Y-01968500
X00571500Y-01968500
X00825500Y-01714500
X00571500Y-01714500
X00825500Y-01460500
X00571500Y-01460500
X00825500Y-01206500
X00571500Y-01206500
X00825500Y-00952500
X00571500Y-00952500
X00825500Y-00698500
X00571500Y-00698500
T03
X03175000Y-00762000
X03175000Y-01587500
X01778000Y-00762000
X01778000Y-01587500
M30
