M48
METRIC
T01C.999998
T02C1.039876
T03C1.199896
;LEADER: 12 
;HEADER: 
;CODE  : EIA 
;FILE  : Shield-1-2.drl for  ... layers TOP and BOTTOM
;DESIGN: Shield.brd
;T01 Holesize 1. = 0.999998 Tolerance = +0.000000/-0.000000 PLATED MM Quantity = 14
;T02 Holesize 2. = 1.039876 Tolerance = +0.000000/-0.000000 PLATED MM Quantity = 40
;T03 Holesize 3. = 1.199896 Tolerance = +0.000000/-0.000000 PLATED MM Quantity = 4
%
G90
T01
X03556000Y-02286000
X03556000Y-01524000
X02603500Y-04318000
X02603500Y-04064000
X02603500Y-03810000
X02603500Y-03556000
X02603500Y-03302000
X02603500Y-03048000
X03810000Y-02286000
X04064000Y-02286000
X04318000Y-02286000
X03810000Y-01524000
X04064000Y-01524000
X04318000Y-01524000
T02
X00508000Y-05334000
X00254000Y-05334000
X00254000Y-04318000
X00508000Y-04064000
X00254000Y-04064000
X00508000Y-03810000
X00254000Y-03810000
X00508000Y-03556000
X00254000Y-03556000
X00508000Y-03302000
X00254000Y-03302000
X00508000Y-03048000
X00254000Y-03048000
X00508000Y-02794000
X00254000Y-02794000
X00508000Y-05080000
X00254000Y-05080000
X00508000Y-04826000
X00254000Y-04826000
X00508000Y-04572000
X00254000Y-04572000
X00508000Y-04318000
X00508000Y-02540000
X00254000Y-02540000
X00508000Y-02286000
X00254000Y-02286000
X00508000Y-02032000
X00254000Y-02032000
X00508000Y-01778000
X00254000Y-01778000
X00508000Y-01524000
X00254000Y-01524000
X00508000Y-01270000
X00254000Y-01270000
X00508000Y-01016000
X00254000Y-01016000
X00508000Y-00762000
X00254000Y-00762000
X00508000Y-00508000
X00254000Y-00508000
T03
X03238500Y-05080000
X04826000Y-05588000
X03238500Y-05588000
X04826000Y-05080000
M30
