G04 ================== begin FILE IDENTIFICATION RECORD ==================*
G04 Layout Name:  P:/S7/projet/PCB_SHIELD/PCB/Shield_2.brd*
G04 Film Name:    TOP*
G04 File Format:  Gerber RS274X*
G04 File Origin:  Cadence Allegro 17.2-S052*
G04 Origin Date:  Fri Jan 24 18:09:44 2020*
G04 *
G04 Layer:  ETCH/TOP*
G04 Layer:  PIN/TOP*
G04 Layer:  VIA CLASS/TOP*
G04 *
G04 Offset:    (0.00 0.00)*
G04 Mirror:    No*
G04 Mode:      Positive*
G04 Rotation:  0*
G04 FullContactRelief:  No*
G04 UndefLineWidth:     0.00*
G04 ================== end FILE IDENTIFICATION RECORD ====================*
%FSLAX51Y51*MOMM*%
%IR0*IPPOS*OFA0.00000B0.00000*MIA0B0*SFA1.00000B1.00000*%
%ADD10C,1.389888*%
%ADD13C,2.199894*%
%ADD11R,1.389888X1.389888*%
%ADD12C,2.999994*%
%ADD14C,.508*%
%ADD15C,.381*%
%ADD16C,.599948*%
%ADD19C,1.7907*%
%ADD17R,4.870704X2.381504*%
%ADD18R,7.766304X2.914904*%
%ADD20R,9.214104X2.914904*%
G75*
%LPD*%
G75*
G36*
G01X635Y0D02*
Y-686D01*
X0D01*
Y0D01*
X635D01*
G37*
%LPC*%
G75*
G36*
G01X59Y-61D02*
X85Y-35D01*
G02X89Y-33I4J-4D01*
G01X140D01*
G02X143Y-35I0J-5D01*
G01X170Y-61D01*
G02X178Y-59I8J-15D01*
G02X161Y-76I0J-17D01*
G02X163Y-69I17J0D01*
G01X163Y-68D01*
X138Y-43D01*
X91D01*
X66Y-68D01*
G02X66Y-70I-9J-2D01*
G02X57Y-61I-9J0D01*
G02X59Y-61I0J-9D01*
G37*
G36*
G01X23Y-33D02*
X41Y-16D01*
G02X44Y-14I4J-4D01*
G01X260D01*
G02X264Y-16I0J-5D01*
G01X310Y-61D01*
G02X318Y-59I8J-15D01*
G02X300Y-76I0J-17D01*
G02X302Y-69I17J0D01*
G01X302Y-68D01*
X258Y-24D01*
X47D01*
X31Y-39D01*
Y-62D01*
X55Y-86D01*
X56Y-86D01*
G02X57Y-86I1J-9D01*
G02X48Y-95I0J-9D01*
G02X48Y-94I9J0D01*
G01X23Y-68D01*
G02X21Y-65I4J4D01*
G01Y-37D01*
G02X23Y-33I5J0D01*
G37*
G36*
G01X75Y-534D02*
Y-538D01*
X81Y-543D01*
X89D01*
G02X92Y-546I0J-2D01*
G01Y-559D01*
G02X89Y-561I-2J0D01*
G01X76D01*
G02X74Y-559I0J2D01*
G01Y-551D01*
X66Y-543D01*
G02X65Y-540I4J4D01*
G01Y-534D01*
G03X63Y-534I-1J0D01*
G02X57Y-536I-6J7D01*
G02Y-518I0J9D01*
G02X63Y-520I0J-9D01*
G03X65Y-520I1J1D01*
G01Y-509D01*
G03X63Y-508I-1J0D01*
G02X57Y-511I-6J7D01*
G02Y-493I0J9D01*
G02X64Y-496I0J-9D01*
G01X65Y-496D01*
Y-495D01*
G02X66Y-492I5J0D01*
G01X73Y-485D01*
G02X76Y-484I4J-4D01*
G01X77D01*
Y-483D01*
G02X74Y-476I6J7D01*
G02X77Y-469I9J0D01*
G03X77Y-467I-1J1D01*
G01X73D01*
X66Y-475D01*
G02X66Y-476I-9J-2D01*
G02X57Y-467I-9J0D01*
G02X59Y-467I0J-9D01*
G01X68Y-459D01*
G02X71Y-457I4J-4D01*
G01X74D01*
G03X75Y-456I0J1D01*
G02X74Y-451I8J5D01*
G02X92I9J0D01*
G02X90Y-456I-9J0D01*
G03X91Y-457I1J-1D01*
G01X101D01*
X212Y-346D01*
G02X216Y-344I4J-4D01*
G01X280D01*
G02X287Y-337I12J-5D01*
G03Y-336I0J1D01*
G02X280Y-329I6J12D01*
G01X205D01*
X124Y-410D01*
G02X121Y-411I-4J3D01*
G01X94D01*
X88Y-417D01*
G03X88Y-419I1J-1D01*
G02X92Y-425I-6J-7D01*
G02X83Y-434I-9J0D01*
G02X78Y-433I0J9D01*
G03X76Y-434I-1J-1D01*
G01Y-437D01*
G02X75Y-440I-5J0D01*
G01X66Y-449D01*
G02X66Y-451I-9J-2D01*
G02X57Y-442I-9J0D01*
G02X59Y-442I0J-9D01*
G01X66Y-435D01*
Y-431D01*
G03X64Y-431I-1J0D01*
G02X57Y-434I-7J5D01*
G02Y-416I0J9D01*
G02X65Y-422I0J-9D01*
G01X66Y-422D01*
Y-421D01*
G02X68Y-417I5J0D01*
G01X74Y-411D01*
G02X78Y-409I4J-4D01*
G01X79D01*
Y-408D01*
G02X74Y-400I3J8D01*
G02X92I9J0D01*
G02X91Y-401I-9J0D01*
G01X92Y-401D01*
X119Y-401D01*
X200Y-320D01*
G02X203Y-319I4J-4D01*
G01X280D01*
G02X292Y-311I12J-5D01*
G02X305Y-324I0J-13D01*
G02X298Y-336I-13J0D01*
G03Y-337I0J-1D01*
G02Y-361I-6J-12D01*
G03Y-363I0J-1D01*
G02X304Y-369I-6J-12D01*
G01X304Y-370D01*
X305D01*
X325Y-350D01*
Y-313D01*
X186Y-174D01*
G02X178Y-176I-8J15D01*
G02X195Y-159I0J17D01*
G02X193Y-166I-17J0D01*
G01X193Y-167D01*
X334Y-308D01*
G02X335Y-311I-4J-4D01*
G01Y-352D01*
G02X334Y-355I-5J0D01*
G01X311Y-378D01*
G02X307Y-380I-4J4D01*
G01X304D01*
G02X298Y-386I-12J5D01*
G03Y-388I0J-1D01*
G02X304Y-395I-6J-12D01*
G01X351D01*
Y-199D01*
X325Y-174D01*
G02X318Y-176I-8J15D01*
G02X335Y-159I0J17D01*
G02X333Y-166I-17J0D01*
G01X333Y-167D01*
X359Y-193D01*
G02X361Y-197I-4J-4D01*
G01Y-400D01*
G02X356Y-405I-5J0D01*
G01X304D01*
G02X298Y-412I-12J5D01*
G03Y-414I0J-1D01*
G02X304Y-420I-6J-12D01*
G01X452D01*
Y-374D01*
G02Y-350I5J12D01*
G01Y-247D01*
G02Y-223I5J12D01*
G01Y-114D01*
G02X444Y-102I5J12D01*
G02X457Y-89I13J0D01*
G02X469Y-96I0J-13D01*
G03X471I1J0D01*
G02X494I12J-6D01*
G03X496I1J0D01*
G02X520I12J-6D01*
G03X522I1J0D01*
G02X533Y-89I12J-6D01*
G02Y-115I0J-13D01*
G02X522Y-107I0J13D01*
G03X520I-1J0D01*
G02X513Y-114I-12J6D01*
G01Y-223D01*
G02X520Y-229I-5J-12D01*
G03X522I1J0D01*
G02X533Y-222I12J-6D01*
G02Y-248I0J-13D01*
G02X522Y-240I0J13D01*
G03X520I-1J0D01*
G02X513Y-247I-12J6D01*
G01Y-350D01*
G02X520Y-356I-5J-12D01*
G03X522I1J0D01*
G02X533Y-349I12J-6D01*
G02Y-375I0J-13D01*
G02X522Y-367I0J13D01*
G03X520I-1J0D01*
G02X513Y-374I-12J6D01*
G01Y-496D01*
G02X520Y-502I-5J-12D01*
G03X522I1J0D01*
G02X533Y-495I12J-6D01*
G02Y-521I0J-13D01*
G02X522Y-514I0J13D01*
G03X520I-1J0D01*
G02X513Y-520I-12J6D01*
G01Y-533D01*
G02X512Y-537I-5J0D01*
G01X492Y-556D01*
G02X489Y-557I-4J4D01*
G01X127D01*
G02X123Y-556I0J5D01*
G01X100Y-532D01*
X90D01*
G02X83Y-536I-7J5D01*
G02X77Y-534I0J9D01*
G03X75Y-534I-1J-1D01*
G37*
G54D19*
X83Y-70D03*
Y-95D03*
X57Y-121D03*
X83D03*
X57Y-146D03*
X83D03*
X57Y-171D03*
X83D03*
X57Y-197D03*
X83D03*
X57Y-222D03*
X83D03*
X57Y-248D03*
X83D03*
X57Y-273D03*
X83D03*
X57Y-298D03*
X83D03*
X57Y-324D03*
Y-552D03*
X83Y-324D03*
X57Y-349D03*
X83D03*
X57Y-375D03*
X83D03*
X57Y-400D03*
G54D17*
X179Y-113D03*
X420Y-75D03*
X478D03*
X535D03*
G54D18*
X587Y-363D03*
Y-236D03*
Y-509D03*
Y-122D03*
G54D20*
X322D03*
%LPD*%
G75*
G36*
G01X75Y-520D02*
Y-509D01*
G02X77Y-508I1J0D01*
G03X83Y-511I6J7D01*
G03X90Y-507I0J9D01*
G01X100D01*
X123Y-530D01*
G03X123Y-531I4J2D01*
G01X129Y-537D01*
G03X133Y-538I4J4D01*
G01X472D01*
G03X476Y-537I0J5D01*
G01X486Y-527D01*
G03X488Y-523I-4J4D01*
G01Y-520D01*
G03X494Y-514I-5J12D01*
G02X496I1J0D01*
G03X503Y-520I12J6D01*
G01Y-531D01*
X487Y-547D01*
X129D01*
X105Y-524D01*
G03X102Y-522I-4J-4D01*
G01X90D01*
G03X83Y-518I-7J-5D01*
G03X77Y-520I0J-9D01*
G02X75Y-520I-1J1D01*
G37*
G36*
G01X304Y-430D02*
X452D01*
Y-496D01*
G03X444Y-508I5J-12D01*
G03X457Y-521I13J0D01*
G03X469Y-514I0J13D01*
G02X471I1J0D01*
G03X477Y-520I12J6D01*
G01X478Y-520D01*
Y-521D01*
X470Y-528D01*
X135D01*
X131Y-525D01*
G03X131Y-524I-4J-2D01*
G01X105Y-498D01*
G03X102Y-497I-4J-4D01*
G01X90D01*
G03X89Y-496I-7J-5D01*
G02X90Y-494I1J1D01*
G01X229D01*
G03X232Y-492I0J5D01*
G01X278Y-447D01*
G02X279Y-448I1J-1D01*
G03X279Y-451I13J-3D01*
G03X305I13J0D01*
G03X298Y-439I-13J0D01*
G02Y-437I0J1D01*
G03X304Y-430I-6J12D01*
G37*
G36*
G01X218Y-354D02*
X280D01*
G03X287Y-361I12J5D01*
G02Y-363I0J-1D01*
G03Y-386I6J-12D01*
G02Y-388I0J-1D01*
G03Y-412I6J-12D01*
G02Y-414I0J-1D01*
G03X279Y-425I6J-12D01*
G03X280Y-430I13J0D01*
G01X227Y-484D01*
X90D01*
G02X89Y-482I0J1D01*
G03X92Y-476I-7J6D01*
G03X88Y-469I-9J0D01*
G02X88Y-467I1J1D01*
G01X103D01*
G03X107Y-466I0J5D01*
G01X218Y-354D01*
G37*
G36*
G01X462Y-374D02*
G03X469Y-367I-5J12D01*
G02X471I1J0D01*
G03X478Y-374I12J6D01*
G01Y-496D01*
G03X471Y-502I5J-12D01*
G02X469I-1J0D01*
G03X462Y-496I-12J-6D01*
G01Y-374D01*
G37*
G36*
G01X488D02*
G03X494Y-367I-5J12D01*
G02X496I1J0D01*
G03X503Y-374I12J6D01*
G01Y-496D01*
G03X496Y-502I5J-12D01*
G02X494I-1J0D01*
G03X488Y-496I-12J-6D01*
G01Y-374D01*
G37*
G36*
G01X462Y-247D02*
G03X469Y-240I-5J12D01*
G02X471I1J0D01*
G03X478Y-247I12J6D01*
G01Y-350D01*
G03X471Y-356I5J-12D01*
G02X469I-1J0D01*
G03X462Y-350I-12J-6D01*
G01Y-247D01*
G37*
G36*
G01X488D02*
G03X494Y-240I-5J12D01*
G02X496I1J0D01*
G03X503Y-247I12J6D01*
G01Y-350D01*
G03X496Y-356I5J-12D01*
G02X494I-1J0D01*
G03X488Y-350I-12J-6D01*
G01Y-247D01*
G37*
G36*
G01X462Y-114D02*
G03X469Y-107I-5J12D01*
G02X471I1J0D01*
G03X478Y-114I12J6D01*
G01Y-223D01*
G03X471Y-229I5J-12D01*
G02X469I-1J0D01*
G03X462Y-223I-12J-6D01*
G01Y-114D01*
G37*
G36*
G01X488D02*
G03X494Y-107I-5J12D01*
G02X496I1J0D01*
G03X503Y-114I12J6D01*
G01Y-223D01*
G03X496Y-229I5J-12D01*
G02X494I-1J0D01*
G03X488Y-223I-12J-6D01*
G01Y-114D01*
G37*
G54D10*
X57Y-527D03*
Y-552D03*
Y-476D03*
Y-502D03*
Y-451D03*
Y-375D03*
Y-400D03*
Y-425D03*
Y-298D03*
Y-324D03*
Y-349D03*
Y-222D03*
Y-248D03*
Y-273D03*
Y-146D03*
Y-171D03*
Y-197D03*
Y-70D03*
Y-95D03*
Y-121D03*
X83Y-527D03*
Y-451D03*
Y-476D03*
Y-502D03*
Y-375D03*
Y-400D03*
Y-425D03*
Y-298D03*
Y-324D03*
Y-349D03*
Y-222D03*
Y-248D03*
Y-273D03*
Y-146D03*
Y-171D03*
Y-197D03*
Y-70D03*
Y-95D03*
Y-121D03*
G54D11*
Y-552D03*
G54D12*
X178Y-159D03*
Y-76D03*
X318Y-159D03*
Y-76D03*
G54D13*
X292Y-451D03*
Y-375D03*
Y-400D03*
Y-425D03*
Y-324D03*
Y-349D03*
X457Y-508D03*
X483D03*
X508D03*
X457Y-362D03*
X483D03*
X508D03*
X457Y-235D03*
X483D03*
X508D03*
X457Y-102D03*
X483D03*
X508D03*
X533Y-508D03*
Y-362D03*
Y-235D03*
Y-102D03*
G54D14*
G01X50Y-509D02*
X57Y-502D01*
G01X50Y-494D02*
X57Y-502D01*
G01X50Y-407D02*
X57Y-400D01*
G01X50Y-393D02*
X57Y-400D01*
G01X50Y-331D02*
X57Y-324D01*
G01X50Y-317D02*
X57Y-324D01*
G01X50Y-153D02*
X57Y-146D01*
G01X50Y-204D02*
X57Y-197D01*
G01X50Y-190D02*
X57Y-197D01*
G01X50Y-139D02*
X57Y-146D01*
G01Y-400D02*
X64Y-393D01*
G01X57Y-400D02*
X64Y-407D01*
G01X83Y-451D02*
X90Y-444D01*
G01X75D02*
X83Y-451D01*
G01X57Y-324D02*
X64Y-317D01*
G01X57Y-324D02*
X64Y-331D01*
G01X75Y-255D02*
X83Y-248D01*
G01D02*
X90Y-240D01*
G01X75D02*
X83Y-248D01*
G01D02*
X90Y-255D01*
G01X57Y-146D02*
X64Y-153D01*
G01X57Y-197D02*
X64Y-190D01*
G01X57Y-197D02*
X64Y-204D01*
G01X75Y-77D02*
X83Y-70D01*
G01D02*
X90Y-77D01*
G01X57Y-146D02*
X64Y-139D01*
G01X83Y-70D02*
X90Y-63D01*
G01X75D02*
X83Y-70D01*
G01X282Y-461D02*
X292Y-451D01*
G01D02*
X302Y-461D01*
G01X292Y-451D02*
X302Y-441D01*
G01X523Y-518D02*
X533Y-508D01*
G01D02*
X543Y-498D01*
G01X523D02*
X533Y-508D01*
G01D02*
X543Y-518D01*
G01X523Y-372D02*
X533Y-362D01*
G01D02*
X543Y-352D01*
G01X523D02*
X533Y-362D01*
G01D02*
X543Y-372D01*
G01X523Y-245D02*
X533Y-235D01*
G01D02*
X543Y-225D01*
G01X523D02*
X533Y-235D01*
G01D02*
X543Y-245D01*
G01X523Y-112D02*
X533Y-102D01*
G01D02*
X543Y-92D01*
G01X523D02*
X533Y-102D01*
G01D02*
X543Y-112D01*
G54D15*
G01X160Y-121D02*
X165Y-105D01*
X170Y-121D01*
G01X168Y-115D02*
X162D01*
G01X175Y-121D02*
Y-105D01*
X184Y-121D01*
Y-105D01*
G01X194D02*
Y-121D01*
G01X189Y-105D02*
X198D01*
G01X282Y-127D02*
Y-111D01*
G01Y-119D02*
X283Y-117D01*
X284Y-117D01*
X285Y-116D01*
X287Y-117D01*
X288Y-118D01*
X289Y-120D01*
Y-122D01*
X289Y-124D01*
X288Y-126D01*
X286Y-127D01*
X285Y-127D01*
X284Y-127D01*
X283Y-126D01*
X282Y-125D01*
G01X303Y-127D02*
Y-116D01*
G01Y-118D02*
X303Y-117D01*
X301Y-117D01*
X300Y-116D01*
X299Y-117D01*
X297Y-118D01*
X297Y-120D01*
X296Y-122D01*
X297Y-124D01*
X297Y-125D01*
X299Y-126D01*
X300Y-127D01*
X301Y-127D01*
X303Y-126D01*
X303Y-125D01*
G01X318Y-118D02*
X316Y-117D01*
X315Y-116D01*
X313Y-117D01*
X312Y-118D01*
X311Y-120D01*
X311Y-122D01*
X311Y-124D01*
X312Y-125D01*
X313Y-126D01*
X315Y-127D01*
X316Y-126D01*
X318Y-125D01*
G01X325Y-127D02*
Y-111D01*
G01X332Y-116D02*
X325Y-122D01*
G01X328Y-120D02*
X332Y-127D01*
G01X340Y-116D02*
Y-124D01*
X341Y-126D01*
X342Y-127D01*
X343Y-127D01*
X345Y-127D01*
X346Y-126D01*
X347Y-124D01*
G01Y-127D02*
Y-116D01*
G01X354Y-132D02*
Y-116D01*
G01Y-119D02*
X355Y-117D01*
X356Y-117D01*
X358Y-116D01*
X359Y-117D01*
X361Y-118D01*
X361Y-120D01*
X361Y-122D01*
X361Y-124D01*
X361Y-125D01*
X359Y-126D01*
X358Y-127D01*
X356Y-127D01*
X355Y-126D01*
X354Y-125D01*
G01X402Y-72D02*
X406Y-83D01*
X410Y-72D01*
G01X424Y-73D02*
X422Y-72D01*
X421Y-72D01*
X420Y-72D01*
X418Y-73D01*
X418Y-75D01*
X417Y-77D01*
X418Y-79D01*
X418Y-81D01*
X420Y-82D01*
X421Y-83D01*
X422Y-82D01*
X424Y-81D01*
G01X438Y-73D02*
X437Y-72D01*
X436Y-72D01*
X434Y-72D01*
X433Y-73D01*
X432Y-75D01*
X432Y-77D01*
X432Y-79D01*
X433Y-81D01*
X434Y-82D01*
X436Y-83D01*
X437Y-82D01*
X438Y-81D01*
G01X460Y-81D02*
X461Y-82D01*
X463Y-83D01*
X464D01*
X465Y-82D01*
X466Y-81D01*
X466Y-80D01*
X466Y-79D01*
X465Y-78D01*
X462Y-76D01*
X461Y-74D01*
X461Y-73D01*
X462Y-72D01*
X463Y-72D01*
X464Y-72D01*
X466Y-73D01*
G01X481Y-73D02*
X479Y-72D01*
X478Y-72D01*
X477Y-72D01*
X475Y-73D01*
X475Y-75D01*
X474Y-77D01*
X475Y-79D01*
X475Y-81D01*
X477Y-82D01*
X478Y-83D01*
X480Y-82D01*
X481Y-81D01*
G01X492Y-83D02*
Y-67D01*
G01X556Y-498D02*
X561D01*
G01X558D02*
Y-514D01*
G01X556D02*
X561D01*
G01X569Y-501D02*
X570Y-499D01*
X572Y-499D01*
X573Y-498D01*
X575Y-499D01*
X577Y-500D01*
X577Y-502D01*
X577Y-503D01*
X576Y-505D01*
X572Y-507D01*
X570Y-509D01*
X569Y-512D01*
X569Y-514D01*
X577D01*
G01X592Y-500D02*
X591Y-499D01*
X589Y-498D01*
X588D01*
X586Y-499D01*
X584Y-500D01*
X583Y-502D01*
X583Y-505D01*
X582Y-507D01*
X583Y-510D01*
X583Y-511D01*
X585Y-513D01*
X586Y-514D01*
X587Y-514D01*
X589D01*
X590Y-514D01*
X591Y-513D01*
X592Y-512D01*
G01X596Y-520D02*
X608D01*
G01X616Y-514D02*
Y-498D01*
X614Y-502D01*
G01Y-514D02*
X619D01*
G01X556Y-352D02*
X561D01*
G01X558D02*
Y-368D01*
G01X556D02*
X561D01*
G01X569Y-355D02*
X570Y-353D01*
X572Y-353D01*
X573Y-352D01*
X575Y-353D01*
X577Y-354D01*
X577Y-356D01*
X577Y-357D01*
X576Y-359D01*
X572Y-361D01*
X570Y-363D01*
X569Y-366D01*
X569Y-368D01*
X577D01*
G01X592Y-354D02*
X591Y-353D01*
X589Y-352D01*
X588D01*
X586Y-353D01*
X584Y-354D01*
X583Y-356D01*
X583Y-359D01*
X582Y-361D01*
X583Y-363D01*
X583Y-365D01*
X585Y-367D01*
X586Y-368D01*
X587Y-368D01*
X589D01*
X590Y-368D01*
X591Y-367D01*
X592Y-366D01*
G01X596Y-374D02*
X608D01*
G01X613Y-355D02*
X614Y-353D01*
X615Y-353D01*
X617Y-352D01*
X619Y-353D01*
X620Y-354D01*
X621Y-356D01*
X620Y-357D01*
X620Y-359D01*
X616Y-361D01*
X614Y-363D01*
X613Y-366D01*
X612Y-368D01*
X621D01*
G01X556Y-225D02*
X561D01*
G01X558D02*
Y-241D01*
G01X556D02*
X561D01*
G01X569Y-228D02*
X570Y-226D01*
X572Y-226D01*
X573Y-225D01*
X575Y-226D01*
X577Y-227D01*
X577Y-229D01*
X577Y-230D01*
X576Y-232D01*
X572Y-234D01*
X570Y-236D01*
X569Y-239D01*
X569Y-241D01*
X577D01*
G01X592Y-227D02*
X591Y-226D01*
X589Y-225D01*
X588D01*
X586Y-226D01*
X584Y-227D01*
X583Y-229D01*
X583Y-232D01*
X582Y-234D01*
X583Y-236D01*
X583Y-238D01*
X585Y-240D01*
X586Y-241D01*
X587Y-241D01*
X589D01*
X590Y-241D01*
X591Y-240D01*
X592Y-239D01*
G01X596Y-247D02*
X608D01*
G01X612Y-238D02*
X613Y-240D01*
X615Y-241D01*
X617Y-241D01*
X618Y-241D01*
X620Y-240D01*
X621Y-238D01*
X621Y-236D01*
X621Y-235D01*
X619Y-233D01*
X618Y-233D01*
X616D01*
G01X618D02*
X619Y-232D01*
X620Y-231D01*
X620Y-229D01*
X620Y-227D01*
X619Y-226D01*
X617Y-225D01*
X615Y-226D01*
X614Y-227D01*
G01X556Y-111D02*
X561D01*
G01X558D02*
Y-127D01*
G01X556D02*
X561D01*
G01X569Y-114D02*
X570Y-112D01*
X572Y-111D01*
X573Y-111D01*
X575Y-112D01*
X577Y-113D01*
X577Y-114D01*
X577Y-116D01*
X576Y-117D01*
X572Y-120D01*
X570Y-122D01*
X569Y-125D01*
X569Y-127D01*
X577D01*
G01X592Y-112D02*
X591Y-112D01*
X589Y-111D01*
X588D01*
X586Y-112D01*
X584Y-113D01*
X583Y-115D01*
X583Y-117D01*
X582Y-120D01*
X583Y-122D01*
X583Y-124D01*
X585Y-125D01*
X586Y-126D01*
X587Y-127D01*
X589D01*
X590Y-126D01*
X591Y-126D01*
X592Y-125D01*
G01X596Y-132D02*
X608D01*
G01X619Y-127D02*
Y-111D01*
X611Y-122D01*
X621D01*
G01X517Y-81D02*
X518Y-82D01*
X520Y-83D01*
X521D01*
X522Y-82D01*
X523Y-81D01*
X523Y-80D01*
X523Y-79D01*
X522Y-78D01*
X519Y-76D01*
X518Y-74D01*
X518Y-73D01*
X519Y-72D01*
X520Y-72D01*
X522Y-72D01*
X523Y-73D01*
G01X538Y-67D02*
Y-83D01*
G01Y-80D02*
X538Y-81D01*
X536Y-82D01*
X535Y-83D01*
X533Y-82D01*
X532Y-81D01*
X531Y-79D01*
X531Y-77D01*
X531Y-75D01*
X532Y-74D01*
X533Y-72D01*
X535Y-72D01*
X536Y-72D01*
X537Y-73D01*
X538Y-74D01*
G01X553Y-83D02*
Y-72D01*
G01Y-74D02*
X552Y-73D01*
X551Y-72D01*
X549Y-72D01*
X548Y-72D01*
X547Y-73D01*
X546Y-75D01*
X546Y-77D01*
X546Y-79D01*
X547Y-81D01*
X548Y-82D01*
X549Y-83D01*
X551Y-82D01*
X552Y-81D01*
X553Y-80D01*
G54D16*
G01X318Y-76D02*
X260Y-19D01*
X44D01*
X26Y-37D01*
Y-65D01*
X57Y-95D01*
G01X292Y-425D02*
X229Y-489D01*
X76D01*
X70Y-495D01*
Y-540D01*
X83Y-552D01*
G01X508Y-508D02*
Y-533D01*
X489Y-552D01*
X127D01*
X102Y-527D01*
X83D01*
G01X57Y-476D02*
X71Y-462D01*
X103D01*
X216Y-349D01*
X292D01*
G01X483Y-508D02*
Y-523D01*
X472Y-533D01*
X133D01*
X127Y-527D01*
X102Y-502D01*
X83D01*
G01X292Y-324D02*
X203D01*
X121Y-406D01*
X92D01*
X84Y-414D01*
X78D01*
X71Y-421D01*
Y-437D01*
X57Y-451D01*
G01X178Y-76D02*
X140Y-38D01*
X89D01*
X57Y-70D01*
G01X292Y-375D02*
X307D01*
X330Y-352D01*
Y-311D01*
X178Y-159D01*
G01X292Y-425D02*
X457D01*
G01X318Y-159D02*
X356Y-197D01*
Y-400D01*
X292D01*
G01X457Y-508D02*
Y-425D01*
G01X508Y-508D02*
Y-362D01*
G01X483Y-508D02*
Y-362D01*
G01X457Y-425D02*
Y-362D01*
G01D02*
Y-235D01*
G01X508Y-362D02*
Y-235D01*
G01X483Y-362D02*
Y-235D01*
G01X457Y-102D02*
Y-235D01*
G01X508Y-102D02*
Y-235D01*
G01X483Y-102D02*
Y-235D01*
M02*
